<svg xmlns="http://www.w3.org/2000/svg" xmlns:xlink="http://www.w3.org/1999/xlink" id="visual" version="1.1" viewBox="0 0 960 541"><rect x="0" y="0" width="960" height="540" fill="#001220"/><path d="M0 366L22.8 369.8C45.7 373.7 91.3 381.3 137 379C182.7 376.7 228.3 364.3 274 366.5C319.7 368.7 365.3 385.3 411.2 387C457 388.7 503 375.3 548.8 367.5C594.7 359.7 640.3 357.3 686 359.7C731.7 362 777.3 369 823 365.2C868.7 361.3 914.3 346.7 937.2 339.3L960 332L960 541L937.2 541C914.3 541 868.7 541 823 541C777.3 541 731.7 541 686 541C640.3 541 594.7 541 548.8 541C503 541 457 541 411.2 541C365.3 541 319.7 541 274 541C228.3 541 182.7 541 137 541C91.3 541 45.7 541 22.8 541L0 541Z" fill="#fa7268"/><path d="M0 385L22.8 379.7C45.7 374.3 91.3 363.7 137 366.3C182.7 369 228.3 385 274 387.7C319.7 390.3 365.3 379.7 411.2 378.2C457 376.7 503 384.3 548.8 385.7C594.7 387 640.3 382 686 386.3C731.7 390.7 777.3 404.3 823 408C868.7 411.7 914.3 405.3 937.2 402.2L960 399L960 541L937.2 541C914.3 541 868.7 541 823 541C777.3 541 731.7 541 686 541C640.3 541 594.7 541 548.8 541C503 541 457 541 411.2 541C365.3 541 319.7 541 274 541C228.3 541 182.7 541 137 541C91.3 541 45.7 541 22.8 541L0 541Z" fill="#ef5f67"/><path d="M0 446L22.8 439.8C45.7 433.7 91.3 421.3 137 422.3C182.7 423.3 228.3 437.7 274 445.7C319.7 453.7 365.3 455.3 411.2 448.7C457 442 503 427 548.8 426.8C594.7 426.7 640.3 441.3 686 448C731.7 454.7 777.3 453.3 823 443.3C868.7 433.3 914.3 414.7 937.2 405.3L960 396L960 541L937.2 541C914.3 541 868.7 541 823 541C777.3 541 731.7 541 686 541C640.3 541 594.7 541 548.8 541C503 541 457 541 411.2 541C365.3 541 319.7 541 274 541C228.3 541 182.7 541 137 541C91.3 541 45.7 541 22.8 541L0 541Z" fill="#e34c67"/><path d="M0 473L22.8 469.8C45.7 466.7 91.3 460.3 137 462.2C182.7 464 228.3 474 274 479C319.7 484 365.3 484 411.2 477.8C457 471.7 503 459.3 548.8 457.2C594.7 455 640.3 463 686 469C731.7 475 777.3 479 823 481.3C868.7 483.7 914.3 484.3 937.2 484.7L960 485L960 541L937.2 541C914.3 541 868.7 541 823 541C777.3 541 731.7 541 686 541C640.3 541 594.7 541 548.8 541C503 541 457 541 411.2 541C365.3 541 319.7 541 274 541C228.3 541 182.7 541 137 541C91.3 541 45.7 541 22.8 541L0 541Z" fill="#d53867"/><path d="M0 484L22.8 482.7C45.7 481.3 91.3 478.7 137 482.7C182.7 486.7 228.3 497.3 274 502.8C319.7 508.3 365.3 508.7 411.2 507.8C457 507 503 505 548.8 499.7C594.7 494.3 640.3 485.7 686 484.8C731.7 484 777.3 491 823 497C868.7 503 914.3 508 937.2 510.5L960 513L960 541L937.2 541C914.3 541 868.7 541 823 541C777.3 541 731.7 541 686 541C640.3 541 594.7 541 548.8 541C503 541 457 541 411.2 541C365.3 541 319.7 541 274 541C228.3 541 182.7 541 137 541C91.3 541 45.7 541 22.8 541L0 541Z" fill="#c62368"/></svg>